<?xml version="1.0" encoding="UTF-8"?>
<svg version="1.1" xmlns="http://www.w3.org/2000/svg" width="494" height="147">
<path d="M0 0 C14.60006157 10.26508185 24.62674175 23.63109801 30.0625 40.5625 C30.27865967 41.22902588 30.49481934 41.89555176 30.7175293 42.58227539 C31.83032782 46.34951718 32.58699074 49.32486355 31 53 C20.87397504 60.28219002 9.14350685 61.93411591 -3 61 C-15.49999423 58.82210935 -25.54159102 52.1296299 -33 42 C-38.14592339 34.01060794 -40.18693165 25.46553907 -40 16 C-40.66 16 -41.32 16 -42 16 C-41.9175 17.2375 -41.835 18.475 -41.75 19.75 C-41.78653248 31.36732753 -47.55045708 41.31963958 -55.1875 49.6875 C-63.61524563 57.70504562 -73.83806021 61.34166749 -85.3125 61.0703125 C-85.869375 61.04710938 -86.42625 61.02390625 -87 61 C-87 61.66 -87 62.32 -87 63 C-86.27296875 63.01417969 -85.5459375 63.02835937 -84.796875 63.04296875 C-72.17917742 63.64150056 -62.00303075 68.07485014 -53 77 C-44.67679103 86.87792159 -42.56306868 95.26299819 -42 108 C-41.34 108 -40.68 108 -40 108 C-40.0825 107.113125 -40.165 106.22625 -40.25 105.3125 C-40.20288255 93.69804738 -34.3574396 83.52359226 -26.6875 75.25 C-18.31363078 67.29942527 -5.97558391 62.58878969 5.56640625 62.78515625 C15.0619954 63.62345064 25.08015757 66.08015757 32 73 C31.77186909 89.99575266 21.38913411 104.38754549 10.25 116.25 C-4.5194943 130.47163052 -23.27595188 136.39112384 -43.42724609 136.37304688 C-63.96510877 135.84185578 -82.37342919 126.07934678 -96.56298828 111.58886719 C-111.55647879 95.01094734 -115.00596731 74.42125342 -114.18652344 52.85498047 C-113.01275159 34.88889666 -103.50893999 20.23096354 -91 8 C-90.36707031 7.33484375 -89.73414062 6.6696875 -89.08203125 5.984375 C-65.83563253 -16.80017474 -26.27174869 -15.8192121 0 0 Z " fill="#3088FF" transform="translate(114,11)"/>
<path d="M0 0 C6.48554389 5.26285938 10.05766711 12.43858066 11.03125 20.6953125 C11.2924822 30.9486765 9.51809122 38.47866163 2.796875 46.40625 C-1.97325519 50.98247246 -7.18103703 53.09931841 -13.375 55.25 C-13.705 58.88 -14.035 62.51 -14.375 66.25 C-19.325 66.25 -24.275 66.25 -29.375 66.25 C-29.375 62.62 -29.375 58.99 -29.375 55.25 C-31.5715625 54.7240625 -31.5715625 54.7240625 -33.8125 54.1875 C-41.44180281 51.86412875 -47.22763255 47.72810894 -51.3125 40.8125 C-55.8748316 31.53051502 -56.64591579 22.51575394 -53.41015625 12.703125 C-50.06757277 4.78183282 -43.89536894 -1.24074139 -36.09765625 -4.78515625 C-23.621555 -9.13258213 -10.86305637 -7.43154884 0 0 Z M-36.125 12.125 C-39.87925558 17.33924386 -41.30952824 21.78906403 -40.375 28.25 C-38.66277472 33.87720524 -36.55283894 38.11604485 -31.375 41.25 C-30.715 41.25 -30.055 41.25 -29.375 41.25 C-29.375 37.62 -29.375 33.99 -29.375 30.25 C-24.755 30.25 -20.135 30.25 -15.375 30.25 C-15.375 33.88 -15.375 37.51 -15.375 41.25 C-10.49158578 39.29663431 -8.00474788 37.90199117 -5.28515625 33.4765625 C-3.20096771 28.37790384 -3.63110858 22.12669405 -4.9921875 16.86328125 C-6.93881861 12.34123995 -9.72840339 9.47222915 -14.02734375 7.09375 C-22.32181886 4.11270736 -30.10173591 5.82795118 -36.125 12.125 Z " fill="#000000" transform="translate(225.375,45.75)"/>
<path d="M0 0 C1.91573016 1.42417198 3.74851398 2.88297423 5.53515625 4.46484375 C4.9519123 7.69025304 4.01300827 9.44060485 1.72265625 11.77734375 C1.22121094 12.30972656 0.71976562 12.84210937 0.203125 13.390625 C-1.46484375 14.46484375 -1.46484375 14.46484375 -3.44140625 14.26171875 C-5.45487544 13.46876949 -7.17605153 12.51791725 -9.02734375 11.40234375 C-14.08324815 8.81296467 -18.89808781 8.76580242 -24.46484375 9.46484375 C-30.09556523 11.41000208 -32.80934379 14.56771881 -35.71484375 19.65234375 C-37.47537031 26.25431835 -37.31219202 32.77110676 -33.8515625 38.76953125 C-30.78513087 42.51835188 -26.92746134 44.13480222 -22.19140625 44.76953125 C-17.01847227 44.92842683 -13.70352904 43.96161097 -8.46484375 42.46484375 C-8.46484375 36.85484375 -8.46484375 31.24484375 -8.46484375 25.46484375 C-3.84484375 25.46484375 0.77515625 25.46484375 5.53515625 25.46484375 C5.53515625 35.69484375 5.53515625 45.92484375 5.53515625 56.46484375 C1.57515625 56.46484375 -2.38484375 56.46484375 -6.46484375 56.46484375 C-6.46484375 55.80484375 -6.46484375 55.14484375 -6.46484375 54.46484375 C-7.44710937 54.95082031 -8.429375 55.43679687 -9.44140625 55.9375 C-13.61418622 57.71759241 -17.34356872 57.96654014 -21.83984375 57.90234375 C-22.96410767 57.88989624 -22.96410767 57.88989624 -24.11108398 57.87719727 C-33.06067306 57.60411283 -39.17504709 54.53125938 -45.73828125 48.46484375 C-52.33751184 40.82048615 -53.14596343 31.13431069 -52.46484375 21.46484375 C-50.49171897 11.90389355 -45.21822783 5.20002486 -37.46484375 -0.53515625 C-26.58059572 -6.69393857 -10.65135188 -6.63388477 0 0 Z " fill="#000000" transform="translate(294.46484375,43.53515625)"/>
<path d="M0 0 C7.25699252 8.18737617 6.2557848 18.72836322 6.125 29 C6.11494978 30.36067049 6.10582754 31.72134817 6.09765625 33.08203125 C6.07420897 36.38809794 6.03834194 39.6940725 6 43 C1.05 43 -3.9 43 -9 43 C-8.97679687 41.4325 -8.95359375 39.865 -8.9296875 38.25 C-8.91091877 36.16667146 -8.89271976 34.08333773 -8.875 32 C-8.85824219 30.97003906 -8.84148437 29.94007812 -8.82421875 28.87890625 C-8.78606308 22.88846643 -9.11128467 17.70576937 -11 12 C-13.4702708 9.5297292 -14.53074952 9.23128337 -18 9 C-21.73509838 9.9936012 -21.73509838 9.9936012 -25 12 C-26.96795449 15.71747336 -27.29095813 19.01075018 -27.4140625 23.17578125 C-27.47207031 24.91118164 -27.47207031 24.91118164 -27.53125 26.68164062 C-27.57765625 28.47891602 -27.57765625 28.47891602 -27.625 30.3125 C-27.68300781 32.1387793 -27.68300781 32.1387793 -27.7421875 34.00195312 C-27.83627705 37.00105742 -27.91921991 40.00050771 -28 43 C-32.62 43 -37.24 43 -42 43 C-42 27.82 -42 12.64 -42 -3 C-37.38 -3 -32.76 -3 -28 -3 C-28 -2.01 -28 -1.02 -28 0 C-26.63875 -0.7115625 -26.63875 -0.7115625 -25.25 -1.4375 C-16.73170236 -5.5328354 -8.0117647 -5.18029765 0 0 Z " fill="#000000" transform="translate(406,57)"/>
<path d="M0 0 C4.95643468 4.22350534 7.89324635 8.48245074 9 15 C9.0216432 16.66652613 9.02555066 18.3335292 9 20 C2.23263936 21.8071929 -4.55861088 23.37508037 -11.4375 24.6875 C-12.11103516 24.81874268 -12.78457031 24.94998535 -13.47851562 25.08520508 C-17.0313554 25.74670409 -20.38595037 26.14623322 -24 26 C-21.25714568 29.45068769 -19.08211866 31.3493316 -14.75 32.0625 C-9.39627991 32.42241396 -5.67829286 30.45053436 -1 28 C1.31 30.64 3.62 33.28 6 36 C1.44967146 41.26131737 -3.12961948 43.64280938 -10.08984375 44.28515625 C-18.65815594 44.51511095 -25.87055032 43.6585135 -32.8125 38.375 C-38.22053571 33.24365449 -40.20351778 27.4216355 -40.5625 20.0625 C-40.28222467 12.96520534 -38.17990493 7.20651502 -33.1328125 2.1171875 C-23.41310912 -5.711523 -10.67791045 -6.38528314 0 0 Z M-25 12 C-25.6916491 15.10589242 -25.6916491 15.10589242 -26 18 C-15.35514418 16.67521643 -15.35514418 16.67521643 -5 14 C-6.80412643 10.73539027 -7.83394693 9.11070205 -11 7 C-17.62944921 6.23924353 -20.52134153 6.97516367 -25 12 Z " fill="#000000" transform="translate(347,57)"/>
<path d="M0 0 C4.7195491 3.92467768 7.66251815 9.01652855 9 15 C9.042721 16.66611905 9.05187796 18.33414093 9 20 C2.23263936 21.8071929 -4.55861088 23.37508037 -11.4375 24.6875 C-12.11103516 24.81874268 -12.78457031 24.94998535 -13.47851562 25.08520508 C-17.0313554 25.74670409 -20.38595037 26.14623322 -24 26 C-21.25714568 29.45068769 -19.08211866 31.3493316 -14.75 32.0625 C-9.39627991 32.42241396 -5.67829286 30.45053436 -1 28 C1.31 30.64 3.62 33.28 6 36 C1.44967146 41.26131737 -3.12961948 43.64280938 -10.08984375 44.28515625 C-18.65815594 44.51511095 -25.87055032 43.6585135 -32.8125 38.375 C-38.22053571 33.24365449 -40.20351778 27.4216355 -40.5625 20.0625 C-40.28222467 12.96520534 -38.17990493 7.20651502 -33.1328125 2.1171875 C-23.35152031 -5.76112956 -10.75896917 -6.29929283 0 0 Z M-25 12 C-25.6916491 15.10589242 -25.6916491 15.10589242 -26 18 C-15.35514418 16.67521643 -15.35514418 16.67521643 -5 14 C-6.80412643 10.73539027 -7.83394693 9.11070205 -11 7 C-17.62944921 6.23924353 -20.52134153 6.97516367 -25 12 Z " fill="#000000" transform="translate(485,57)"/>
<path d="M0 0 C4.62 0 9.24 0 14 0 C14 15.18 14 30.36 14 46 C9.38 46 4.76 46 0 46 C0 30.82 0 15.64 0 0 Z " fill="#000000" transform="translate(423,54)"/>
<path d="M0 0 C2.98090437 1.41592958 3.70778811 2.27921067 4.9375 5.3125 C5.0210371 8.90459547 3.85920856 10.97017865 2 14 C-1.22998043 15.61499021 -4.50809992 15.57976204 -8 15 C-11.0625 12.9375 -11.0625 12.9375 -13 10 C-13 6.49106307 -12.87585354 4.15005693 -10.71484375 1.3125 C-7.54593677 -1.11290489 -3.8000828 -0.50163842 0 0 Z " fill="#000000" transform="translate(434,33)"/>
</svg>
